<svg width="13" height="12" viewBox="0 0 13 12" fill="none" xmlns="http://www.w3.org/2000/svg">
<path fill-rule="evenodd" clip-rule="evenodd" d="M0.587891 6.00033C0.587891 9.43366 2.98789 11.8337 6.42122 11.8337C6.69456 11.8337 6.92122 11.607 6.92122 11.3337C6.92122 11.0603 6.69456 10.8337 6.42122 10.8337C3.57456 10.8337 1.58789 8.84699 1.58789 6.00033C1.58789 3.15366 3.57456 1.16699 6.42122 1.16699C6.69456 1.16699 6.92122 0.940325 6.92122 0.666992C6.92122 0.393659 6.69456 0.166992 6.42122 0.166992C2.98789 0.166992 0.587891 2.56699 0.587891 6.00033ZM10.2079 8.24699C10.0812 8.24699 9.95456 8.20033 9.85456 8.10033C9.66122 7.90699 9.66122 7.58699 9.85456 7.39366L10.7079 6.54033H5.08789C4.81456 6.54033 4.58789 6.31366 4.58789 6.04033C4.58789 5.76699 4.81456 5.54033 5.08789 5.54033H10.7079L9.85456 4.68699C9.66122 4.49366 9.66122 4.17366 9.85456 3.98033C10.0479 3.78699 10.3679 3.78699 10.5612 3.98033L12.2679 5.68699C12.4612 5.88033 12.4612 6.20033 12.2679 6.39366L10.5612 8.10033C10.4612 8.20033 10.3346 8.24699 10.2079 8.24699Z" fill="white"/>
</svg>
